<svg width="18" height="15" viewBox="0 0 18 15" fill="none" xmlns="http://www.w3.org/2000/svg">
<path d="M7.11735 10.7778C10.1209 10.7778 12.5556 8.58935 12.5556 5.8889C12.5556 3.18845 10.1209 1 7.11735 1C4.11467 1 1.68 3.18845 1.68 5.8889C1.68 6.61601 1.856 7.30579 2.17245 7.92624L1 10.7778L4.39912 10.1236C5.19912 10.5396 6.12712 10.7778 7.11735 10.7778Z" stroke="#1B93C5" stroke-linejoin="round"/>
<path d="M7.9375 13.5546C8.8336 14.0693 9.84988 14.338 10.8833 14.3333C11.8291 14.3368 12.7617 14.1124 13.6024 13.679L17.0006 14.3333L15.8273 11.4817C16.1512 10.8514 16.3203 10.153 16.3206 9.44436C16.3206 8.33769 15.9117 7.31724 15.2229 6.49769C14.5571 5.70657 13.63 5.10302 12.5562 4.79102" stroke="#1B93C5" stroke-linecap="round" stroke-linejoin="round"/>
<path d="M9.88845 6.77778C9.39753 6.77778 8.99956 6.37981 8.99956 5.88889C8.99956 5.39797 9.39753 5 9.88845 5C10.3794 5 10.7773 5.39797 10.7773 5.88889C10.7773 6.37981 10.3794 6.77778 9.88845 6.77778Z" fill="#1B93C5"/>
<path d="M7.22219 6.77778C6.73127 6.77778 6.3333 6.37981 6.3333 5.88889C6.3333 5.39797 6.73127 5 7.22219 5C7.71311 5 8.11108 5.39797 8.11108 5.88889C8.11108 6.37981 7.71311 6.77778 7.22219 6.77778Z" fill="#1B93C5"/>
<path d="M4.55642 6.77778C4.0655 6.77778 3.66753 6.37981 3.66753 5.88889C3.66753 5.39797 4.0655 5 4.55642 5C5.04734 5 5.44531 5.39797 5.44531 5.88889C5.44531 6.37981 5.04734 6.77778 4.55642 6.77778Z" fill="#1B93C5"/>
</svg>
