<svg width="18" height="12" viewBox="0 0 18 12" fill="none" xmlns="http://www.w3.org/2000/svg">
<path d="M13.5888 4.32343C13.3224 2.70067 12.2982 1.30184 10.8313 0.558045C9.36456 -0.186015 7.63088 -0.186015 6.16419 0.558045C4.69722 1.30184 3.67306 2.70067 3.4066 4.32343C2.46876 4.43221 1.6035 4.8816 0.975365 5.5866C0.347226 6.29132 0.000272444 7.20247 2.07376e-06 8.14667C-0.00105406 9.16503 0.401333 10.1422 1.11947 10.8644C1.83737 11.5868 2.81219 11.995 3.83055 12H13.1644C14.1862 12 15.1658 11.5939 15.8879 10.8713C16.6098 10.1484 17.0151 9.16827 17.014 8.14667C17.0132 7.19957 16.6634 6.28605 16.0316 5.58079C15.3995 4.87553 14.5297 4.42773 13.5884 4.32343H13.5888ZM8.49775 10.0089L5.24621 6.75359H7.3622V3.25621H9.63345V6.75359H11.7494L8.49775 10.0089Z" fill="#1B93C5"/>
</svg>
